<?xml version="1.0" encoding="UTF-8"?>
<!DOCTYPE svg PUBLIC "-//W3C//DTD SVG 1.1//EN" "http://www.w3.org/Graphics/SVG/1.1/DTD/svg11.dtd">
<!-- Creator: CorelDRAW 2019 (64-Bit) -->
<svg xmlns="http://www.w3.org/2000/svg" xml:space="preserve" width="{{ include.width }}" height="{{ include.height }}" version="1.1" style="shape-rendering:geometricPrecision; text-rendering:geometricPrecision; image-rendering:optimizeQuality; fill-rule:evenodd; clip-rule:evenodd"
viewBox="0 0 3566.3 1285.5"
 xmlns:xlink="http://www.w3.org/1999/xlink"
 xmlns:xodm="http://www.corel.com/coreldraw/odm/2003">
 <defs>
  <style type="text/css">
   <![CDATA[
    .str0 {stroke:black;stroke-width:10.79;stroke-miterlimit:22.9256}
    .fil0 {fill:#1C1B17;fill-rule:nonzero}
    .fil2 {fill:white;fill-rule:nonzero}
    .fil3 {fill:url(#id0);fill-rule:nonzero}
    .fil1 {fill:url(#id1);fill-rule:nonzero}
   ]]>
  </style>
  <linearGradient id="id0" gradientUnits="userSpaceOnUse" x1="642.75" y1="107.91" x2="642.75" y2="1177.58">
   <stop offset="0" style="stop-opacity:1; stop-color:#DA4A00"/>
   <stop offset="0.321569" style="stop-opacity:1; stop-color:#CA2500"/>
   <stop offset="1" style="stop-opacity:1; stop-color:#BA0000"/>
  </linearGradient>
  <linearGradient id="id1" gradientUnits="userSpaceOnUse" xlink:href="#id0" x1="3422.99" y1="423.85" x2="3422.99" y2="861.64">
  </linearGradient>
 </defs>
 <g id="Warstwa_x0020_1">
  <metadata id="CorelCorpID_0Corel-Layer"/>
  <g id="_2420399533680">
   <polygon class="fil0" points="1985.42,428.08 1874.77,428.08 1818.53,655.14 1748.99,428.08 1674.01,428.08 1604.47,655.14 1548.24,428.08 1437.58,428.08 1556.1,858.01 1641.96,858.01 1711.5,646.07 1781.04,858.01 1867.51,858.01 "/>
   <path id="1" class="fil0" d="M2276.28 727.4l0 -44.14c0,-85.26 -52,-154.19 -146.33,-154.19 -85.26,0 -145.73,59.86 -145.73,166.29 0,140.28 82.84,166.29 154.8,166.29 60.47,0 93.12,-18.14 126.38,-51.4l-59.26 -59.26c-17.54,17.53 -32.66,27.21 -67.12,27.21 -36.88,0 -57.45,-24.19 -57.45,-50.8l194.71 0zm-97.96 -65.91l-96.75 0c0,-7.86 1.21,-16.93 5.45,-25.4 6.04,-13.91 19.35,-25.4 42.93,-25.4 23.58,0 36.89,11.49 42.93,25.4 4.24,8.47 5.45,17.53 5.45,25.4z"/>
   <path id="2" class="fil0" d="M2487.32 858.01l0 -83.45 -34.47 0c-13.3,0 -19.95,-7.15 -19.95,-19.85l0 -326.63 -99.17 0 0 333.89c0,44.65 29.03,96.05 100.98,96.05l52.61 0z"/>
   <path id="3" class="fil0" d="M2805.38 727.4l0 -44.14c0,-85.26 -52,-154.19 -146.33,-154.19 -85.26,0 -145.73,59.86 -145.73,166.29 0,140.28 82.84,166.29 154.8,166.29 60.47,0 93.12,-18.14 126.38,-51.4l-59.26 -59.26c-17.54,17.53 -32.66,27.21 -67.12,27.21 -36.88,0 -57.45,-24.19 -57.45,-50.8l194.71 0zm-97.96 -65.91l-96.75 0c0,-7.86 1.21,-16.93 5.45,-25.4 6.04,-13.91 19.35,-25.4 42.93,-25.4 23.58,0 36.89,11.49 42.93,25.4 4.24,8.47 5.45,17.53 5.45,25.4z"/>
   <path id="4" class="fil0" d="M3116.8 751.59c0,-52.01 -29.63,-92.52 -97.96,-99.17l-50.19 -4.84c-22.38,-2.42 -21.17,-14.51 -21.17,-18.14 0,-7.26 7.86,-18.75 32.05,-18.75 25.4,0 52.61,3.02 68.94,19.35l61.07 -61.08c-32.05,-32.05 -74.98,-39.91 -128.2,-39.91 -64.7,0 -129.4,35.67 -129.4,107.63 0,63.49 38.09,88.89 94.33,94.33l50.19 4.84c19.35,1.81 23.58,11.48 23.58,20.56 0,16.93 -27.82,21.17 -42.33,21.17 -16.93,0 -52,0 -79.21,-27.21l-64.1 64.1c44.75,44.75 92.52,47.16 141.5,47.16 75.59,0 140.89,-33.26 140.89,-110.05z"/>
   <path class="fil1" d="M3566.3 729.21c0,-51.4 -26,-77.4 -49.58,-93.72 21.77,-13.91 44.75,-36.89 44.75,-84.05 0,-74.38 -58.65,-127.59 -138.48,-127.59 -76.79,0 -138.47,48.98 -138.47,130l99.17 0c0,-26 18.74,-40.51 39.3,-40.51 20.56,0 39.31,13.91 39.31,41.11 0,19.35 -11.49,40.52 -41.12,40.52l-13.91 0 0 85.87 13.91 0c26.61,0 45.96,19.35 45.96,45.35 0,30.84 -18.14,45.96 -44.14,45.96 -24.79,0 -44.14,-15.12 -44.14,-45.35l-99.16 0c0,96.75 71.96,134.84 143.31,134.84 75.59,0 143.31,-42.33 143.31,-132.43z"/>
  </g>
  <g id="_2420399507216">
   <path class="fil2 str0" d="M1280.09 295.1c0,-70.9 -12.96,-128.48 -38.87,-173.1 -44.98,-77.73 -128.48,-116.6 -250.84,-116.6l-695.29 0c-122.72,0 -206.21,38.87 -250.83,116.6 -19.8,33.83 -31.68,75.21 -36.35,123.8 -1.8,15.47 -2.52,32.03 -2.52,49.3l0 695.29c0,17.27 0.72,33.83 2.52,49.66 0.72,7.56 1.8,14.76 2.88,22.31 14.76,96.09 61.18,160.51 139.63,192.9 39.95,16.56 88.17,24.84 144.68,24.84l695.28 0c167.35,0 262.35,-72.7 284.67,-217.73 3.24,-22.31 5.04,-46.43 5.04,-71.97l0 -695.29z"/>
   <path class="fil3" d="M1167.98 1073.12c6.27,-21.41 9.6,-46.13 9.6,-73.82l0 -713.11c0,-111.84 -52.78,-171.26 -158.35,-177.54 -6.28,-0.37 -12.92,-0.74 -19.93,-0.74l-713.11 0c-7.02,0 -13.66,0.37 -19.93,0.74 -105.57,6.28 -158.35,65.7 -158.35,177.54l0 713.11c0,27.68 3.32,52.41 9.97,73.82 21.04,69.76 77.14,104.46 168.31,104.46l713.11 0c91.16,0 147.27,-34.7 168.68,-104.46z"/>
   <polygon class="fil2" points="1011.62,220.6 800.37,220.6 800.37,642.39 643.1,483.32 484.04,642.39 484.04,220.6 273.15,220.6 273.15,1064.16 484.04,1064.16 484.04,958.72 643.1,801.1 800.37,958.72 800.37,1064.16 1011.62,1064.16 "/>
  </g>
 </g>
</svg>
