<?xml version="1.0" standalone="no"?>
<!DOCTYPE svg PUBLIC "-//W3C//DTD SVG 20010904//EN"
 "http://www.w3.org/TR/2001/REC-SVG-20010904/DTD/svg10.dtd">
<svg version="1.0" xmlns="http://www.w3.org/2000/svg"
 width="700.000000pt" height="700.000000pt" viewBox="0 0 700.000000 700.000000"
 preserveAspectRatio="xMidYMid meet">
<metadata>
Created by potrace 1.11, written by Peter Selinger 2001-2013
</metadata>
<g transform="translate(0.000000,700.000000) scale(0.100000,-0.100000)"
fill="#000000" stroke="none">
<path d="M1419 6996 c-2 -2 -44 -7 -94 -11 -49 -4 -92 -8 -95 -10 -3 -1 -27
-6 -53 -9 -144 -20 -408 -109 -508 -172 -21 -13 -41 -24 -45 -24 -6 0 -82 -52
-123 -85 -32 -26 -150 -142 -177 -176 -62 -76 -136 -201 -183 -309 -47 -108
-101 -312 -115 -435 -4 -27 -11 -81 -15 -120 -11 -79 -9 -4285 1 -4325 4 -14
11 -57 17 -96 10 -68 27 -149 50 -240 6 -23 24 -77 40 -122 137 -370 401 -629
773 -756 92 -31 263 -72 338 -81 30 -3 80 -9 110 -13 78 -10 4239 -9 4330 1
253 28 426 75 604 164 143 71 220 127 331 238 190 190 310 453 370 810 17 103
20 420 20 2315 0 1981 -1 2112 -18 2219 -73 460 -250 772 -555 979 -177 121
-426 207 -717 248 -51 7 -4278 17 -4286 10z"/>
</g>
</svg>
